<svg width="200" height="200" viewBox="0 0 200 200" fill="none" xmlns="http://www.w3.org/2000/svg">
<rect width="200" height="200" rx="10" fill="white"/>
<path d="M65.3181 62.12C65.3181 65.928 64.3661 68.6933 62.4621 70.416C60.6035 72.1387 57.7021 73 53.7581 73H52.8741C48.9301 73 46.0061 72.1387 44.1021 70.416C42.2435 68.6933 41.3141 65.928 41.3141 62.12V49.88C41.3141 46.072 42.2435 43.3067 44.1021 41.584C46.0061 39.8613 48.9301 39 52.8741 39H53.7581C57.7021 39 60.6035 39.8613 62.4621 41.584C64.3661 43.3067 65.3181 46.072 65.3181 49.88V62.12ZM59.5381 48.52C59.5381 47.1147 59.1075 46.0267 58.2461 45.256C57.3848 44.4853 56.1155 44.1 54.4381 44.1H52.1941C50.5168 44.1 49.2475 44.4853 48.3861 45.256C47.5248 46.0267 47.0941 47.1147 47.0941 48.52V63.48C47.0941 64.8853 47.5248 65.9733 48.3861 66.744C49.2475 67.5147 50.5168 67.9 52.1941 67.9H54.4381C56.1155 67.9 57.3848 67.5147 58.2461 66.744C59.1075 65.9733 59.5381 64.8853 59.5381 63.48V48.52ZM73.4893 39H78.9293V40.632C80.3346 39.544 82.148 39 84.3693 39H85.4573C89.4466 39 92.3706 39.8613 94.2293 41.584C96.088 43.2613 97.0173 46.0267 97.0173 49.88V62.12C97.0173 65.928 96.0653 68.6933 94.1613 70.416C92.3026 72.1387 89.4013 73 85.4573 73H79.2693V84.56H73.4893V39ZM83.6893 44.1C82.1933 44.1 81.0826 44.508 80.3573 45.324C79.632 46.0947 79.2693 46.9333 79.2693 47.84V67.9H86.1373C87.8146 67.9 89.084 67.5147 89.9453 66.744C90.8066 65.9733 91.2373 64.8853 91.2373 63.48V48.52C91.2373 47.1147 90.8066 46.0267 89.9453 45.256C89.084 44.4853 87.8146 44.1 86.1373 44.1H83.6893ZM116.064 73C112.074 73 109.15 72.1613 107.292 70.484C105.433 68.7613 104.504 65.9733 104.504 62.12V49.88C104.504 45.9813 105.342 43.1933 107.02 41.516C108.697 39.8387 111.485 39 115.384 39H117.22C120.438 39 122.864 39.9067 124.496 41.72C126.173 43.488 127.012 46.0947 127.012 49.54V58.38H110.284V63.48C110.284 64.8853 110.714 65.9733 111.576 66.744C112.437 67.5147 113.706 67.9 115.384 67.9H124.836V73H116.064ZM121.368 53.28V48.18C121.368 47.0013 120.982 46.0267 120.212 45.256C119.441 44.4853 118.466 44.1 117.288 44.1H114.704C113.072 44.1 111.916 44.4853 111.236 45.256C110.601 45.9813 110.284 47.0693 110.284 48.52V53.28H121.368ZM134.819 39H140.259V40.632C141.665 39.544 143.478 39 145.699 39H147.467C151.139 39 153.859 39.8613 155.627 41.584C157.441 43.3067 158.347 46.072 158.347 49.88V73H152.567V48.52C152.567 47.16 152.159 46.0947 151.343 45.324C150.573 44.508 149.507 44.1 148.147 44.1H145.019C143.523 44.1 142.413 44.508 141.687 45.324C140.962 46.0947 140.599 46.9333 140.599 47.84V73H134.819V39Z" fill="black"/>
<path d="M60.1527 121C59.6327 121 59.0527 120.84 58.4127 120.52C57.8127 120.2 57.2927 119.76 56.8527 119.2C55.9327 120.4 54.7127 121 53.1927 121H49.0527C46.0127 121 43.7927 120.4 42.3927 119.2C41.0327 117.96 40.3527 115.86 40.3527 112.9V111.7C40.3527 105.5 43.2727 102.4 49.1127 102.4H55.3527V99.4C55.3527 98.16 54.9727 97.2 54.2127 96.52C53.4527 95.84 52.3327 95.5 50.8527 95.5H42.7527V91H50.2527C53.7327 91 56.2927 91.76 57.9327 93.28C59.6127 94.8 60.4527 97.24 60.4527 100.6V115C60.4527 115.6 60.6727 116.06 61.1127 116.38C61.5927 116.66 62.3727 116.8 63.4527 116.8V121H60.1527ZM52.5927 116.5C53.7927 116.5 54.5527 116.22 54.8727 115.66C55.1927 115.1 55.3527 114.38 55.3527 113.5V106.9H49.0527C48.0127 106.9 47.1527 107.24 46.4727 107.92C45.7927 108.6 45.4527 109.46 45.4527 110.5V113.5C45.4527 114.54 45.6927 115.3 46.1727 115.78C46.6527 116.26 47.4127 116.5 48.4527 116.5H52.5927ZM83.7763 119.62C82.4563 120.54 80.8563 121 78.9763 121H78.1363C74.8963 121 72.4763 120.24 70.8763 118.72C69.3163 117.2 68.5363 114.76 68.5363 111.4V91H73.6363V112.6C73.6363 113.8 73.9763 114.76 74.6563 115.48C75.3763 116.16 76.3363 116.5 77.5363 116.5H79.5763C80.8563 116.5 81.7963 116.18 82.3963 115.54C83.0363 114.9 83.3963 114.18 83.4763 113.38V91H88.5763V121H83.7763V119.62ZM112.052 119.62C110.732 120.54 109.132 121 107.252 121H105.992C102.472 121 99.8918 120.26 98.2518 118.78C96.6118 117.26 95.7918 114.8 95.7918 111.4V100.6C95.7918 97.24 96.6118 94.8 98.2518 93.28C99.9318 91.76 102.512 91 105.992 91H111.752V79H116.852V121H112.052V119.62ZM107.852 116.5C109.172 116.5 110.152 116.16 110.792 115.48C111.432 114.76 111.752 114 111.752 113.2V95.5H105.392C103.912 95.5 102.792 95.84 102.032 96.52C101.272 97.2 100.892 98.16 100.892 99.4V112.6C100.892 113.84 101.272 114.8 102.032 115.48C102.792 116.16 103.912 116.5 105.392 116.5H107.852ZM124.35 84.4V79H130.05V84.4H124.35ZM124.65 121V91H129.75V121H124.65ZM158.137 111.4C158.137 114.76 157.297 117.2 155.617 118.72C153.977 120.24 151.417 121 147.937 121H147.157C143.677 121 141.097 120.24 139.417 118.72C137.777 117.2 136.957 114.76 136.957 111.4V100.6C136.957 97.24 137.777 94.8 139.417 93.28C141.097 91.76 143.677 91 147.157 91H147.937C151.417 91 153.977 91.76 155.617 93.28C157.297 94.8 158.137 97.24 158.137 100.6V111.4ZM153.037 99.4C153.037 98.16 152.657 97.2 151.897 96.52C151.137 95.84 150.017 95.5 148.537 95.5H146.557C145.077 95.5 143.957 95.84 143.197 96.52C142.437 97.2 142.057 98.16 142.057 99.4V112.6C142.057 113.84 142.437 114.8 143.197 115.48C143.957 116.16 145.077 116.5 146.557 116.5H148.537C150.017 116.5 151.137 116.16 151.897 115.48C152.657 114.8 153.037 113.84 153.037 112.6V99.4Z" fill="black"/>
<path d="M59.8635 160.875C59.8635 163.605 59.0185 165.642 57.3285 166.985C55.6819 168.328 53.2769 169 50.1135 169H41.7285V164.125H50.7635C51.9335 164.125 52.8219 163.887 53.4285 163.41C54.0352 162.89 54.3385 162.153 54.3385 161.2V157.755C54.3385 155.805 53.4069 154.83 51.5435 154.83H50.4385C47.4052 154.83 45.1302 154.18 43.6135 152.88C42.1402 151.537 41.4035 149.435 41.4035 146.575V144.69C41.4035 141.787 42.2269 139.707 43.8735 138.45C45.5202 137.15 47.9469 136.5 51.1535 136.5H58.5635V141.375H50.5035C49.4202 141.375 48.5535 141.635 47.9035 142.155C47.2535 142.632 46.9285 143.347 46.9285 144.3V146.64C46.9285 147.637 47.2102 148.373 47.7735 148.85C48.3802 149.327 49.1385 149.565 50.0485 149.565H50.9585C53.8619 149.565 56.0719 150.28 57.5885 151.71C59.1052 153.097 59.8635 155.177 59.8635 157.95V160.875ZM73.8654 169C71.6554 169 69.9654 168.285 68.7954 166.855C67.6254 165.425 67.0404 163.54 67.0404 161.2V141.375H62.8154V136.5H67.0404V128.7H72.5654V136.5H80.1054V141.375H72.5654V161.525C72.5654 162.478 72.8038 163.15 73.2804 163.54C73.7571 163.93 74.4938 164.125 75.4904 164.125H80.1054V169H73.8654ZM104.126 169C103.563 169 102.934 168.827 102.241 168.48C101.591 168.133 101.028 167.657 100.551 167.05C99.5543 168.35 98.2326 169 96.586 169H92.101C88.8076 169 86.4026 168.35 84.886 167.05C83.4126 165.707 82.676 163.432 82.676 160.225V158.925C82.676 152.208 85.8393 148.85 92.166 148.85H98.926V145.6C98.926 144.257 98.5143 143.217 97.691 142.48C96.8676 141.743 95.6543 141.375 94.051 141.375H85.276V136.5H93.401C97.171 136.5 99.9443 137.323 101.721 138.97C103.541 140.617 104.451 143.26 104.451 146.9V162.5C104.451 163.15 104.689 163.648 105.166 163.995C105.686 164.298 106.531 164.45 107.701 164.45V169H104.126ZM95.936 164.125C97.236 164.125 98.0593 163.822 98.406 163.215C98.7526 162.608 98.926 161.828 98.926 160.875V153.725H92.101C90.9743 153.725 90.0426 154.093 89.306 154.83C88.5693 155.567 88.201 156.498 88.201 157.625V160.875C88.201 162.002 88.461 162.825 88.981 163.345C89.501 163.865 90.3243 164.125 91.451 164.125H95.936ZM123.933 169C120.12 169 117.325 168.198 115.548 166.595C113.772 164.948 112.883 162.283 112.883 158.6V146.9C112.883 143.26 113.772 140.617 115.548 138.97C117.368 137.323 120.163 136.5 123.933 136.5H131.018V141.375H123.283C121.68 141.375 120.467 141.743 119.643 142.48C118.82 143.217 118.408 144.257 118.408 145.6V159.9C118.408 161.243 118.82 162.283 119.643 163.02C120.467 163.757 121.68 164.125 123.283 164.125H131.018V169H123.933ZM153.795 169L144.89 152.945L143.07 155.09V169H137.545V123.5H143.07V147.81L152.82 136.5H159.775L148.79 149.045L160.23 169H153.795Z" fill="black"/>
</svg>
