<svg width="200" height="200" viewBox="0 0 200 200" fill="none" xmlns="http://www.w3.org/2000/svg">
<rect width="200" height="200" rx="10" fill="white"/>
<path d="M69.3984 61.4C69.3984 64.76 68.5584 67.2 66.8784 68.72C65.2384 70.24 62.6784 71 59.1984 71H58.4184C54.9384 71 52.3584 70.24 50.6784 68.72C49.0384 67.2 48.2184 64.76 48.2184 61.4V50.6C48.2184 47.24 49.0384 44.8 50.6784 43.28C52.3584 41.76 54.9384 41 58.4184 41H59.1984C62.6784 41 65.2384 41.76 66.8784 43.28C68.5584 44.8 69.3984 47.24 69.3984 50.6V61.4ZM64.2984 49.4C64.2984 48.16 63.9184 47.2 63.1584 46.52C62.3984 45.84 61.2784 45.5 59.7984 45.5H57.8184C56.3384 45.5 55.2184 45.84 54.4584 46.52C53.6984 47.2 53.3184 48.16 53.3184 49.4V62.6C53.3184 63.84 53.6984 64.8 54.4584 65.48C55.2184 66.16 56.3384 66.5 57.8184 66.5H59.7984C61.2784 66.5 62.3984 66.16 63.1584 65.48C63.9184 64.8 64.2984 63.84 64.2984 62.6V49.4ZM76.6082 41H81.4082V42.44C82.6482 41.48 84.2482 41 86.2082 41H87.1682C90.6882 41 93.2682 41.76 94.9082 43.28C96.5482 44.76 97.3682 47.2 97.3682 50.6V61.4C97.3682 64.76 96.5282 67.2 94.8482 68.72C93.2082 70.24 90.6482 71 87.1682 71H81.7082V81.2H76.6082V41ZM85.6082 45.5C84.2882 45.5 83.3082 45.86 82.6682 46.58C82.0282 47.26 81.7082 48 81.7082 48.8V66.5H87.7682C89.2482 66.5 90.3682 66.16 91.1282 65.48C91.8882 64.8 92.2682 63.84 92.2682 62.6V49.4C92.2682 48.16 91.8882 47.2 91.1282 46.52C90.3682 45.84 89.2482 45.5 87.7682 45.5H85.6082ZM114.174 71C110.654 71 108.074 70.26 106.434 68.78C104.794 67.26 103.974 64.8 103.974 61.4V50.6C103.974 47.16 104.714 44.7 106.194 43.22C107.674 41.74 110.134 41 113.574 41H115.194C118.034 41 120.174 41.8 121.614 43.4C123.094 44.96 123.834 47.26 123.834 50.3V58.1H109.074V62.6C109.074 63.84 109.454 64.8 110.214 65.48C110.974 66.16 112.094 66.5 113.574 66.5H121.914V71H114.174ZM118.854 53.6V49.1C118.854 48.06 118.514 47.2 117.834 46.52C117.154 45.84 116.294 45.5 115.254 45.5H112.974C111.534 45.5 110.514 45.84 109.914 46.52C109.354 47.16 109.074 48.12 109.074 49.4V53.6H118.854ZM130.723 41H135.523V42.44C136.763 41.48 138.363 41 140.323 41H141.883C145.123 41 147.523 41.76 149.083 43.28C150.683 44.8 151.483 47.24 151.483 50.6V71H146.383V49.4C146.383 48.2 146.023 47.26 145.303 46.58C144.623 45.86 143.683 45.5 142.483 45.5H139.723C138.403 45.5 137.423 45.86 136.783 46.58C136.143 47.26 135.823 48 135.823 48.8V71H130.723V41Z" fill="black"/>
<path d="M60.1527 121C59.6327 121 59.0527 120.84 58.4127 120.52C57.8127 120.2 57.2927 119.76 56.8527 119.2C55.9327 120.4 54.7127 121 53.1927 121H49.0527C46.0127 121 43.7927 120.4 42.3927 119.2C41.0327 117.96 40.3527 115.86 40.3527 112.9V111.7C40.3527 105.5 43.2727 102.4 49.1127 102.4H55.3527V99.4C55.3527 98.16 54.9727 97.2 54.2127 96.52C53.4527 95.84 52.3327 95.5 50.8527 95.5H42.7527V91H50.2527C53.7327 91 56.2927 91.76 57.9327 93.28C59.6127 94.8 60.4527 97.24 60.4527 100.6V115C60.4527 115.6 60.6727 116.06 61.1127 116.38C61.5927 116.66 62.3727 116.8 63.4527 116.8V121H60.1527ZM52.5927 116.5C53.7927 116.5 54.5527 116.22 54.8727 115.66C55.1927 115.1 55.3527 114.38 55.3527 113.5V106.9H49.0527C48.0127 106.9 47.1527 107.24 46.4727 107.92C45.7927 108.6 45.4527 109.46 45.4527 110.5V113.5C45.4527 114.54 45.6927 115.3 46.1727 115.78C46.6527 116.26 47.4127 116.5 48.4527 116.5H52.5927ZM83.7763 119.62C82.4563 120.54 80.8563 121 78.9763 121H78.1363C74.8963 121 72.4763 120.24 70.8763 118.72C69.3163 117.2 68.5363 114.76 68.5363 111.4V91H73.6363V112.6C73.6363 113.8 73.9763 114.76 74.6563 115.48C75.3763 116.16 76.3363 116.5 77.5363 116.5H79.5763C80.8563 116.5 81.7963 116.18 82.3963 115.54C83.0363 114.9 83.3963 114.18 83.4763 113.38V91H88.5763V121H83.7763V119.62ZM112.052 119.62C110.732 120.54 109.132 121 107.252 121H105.992C102.472 121 99.8918 120.26 98.2518 118.78C96.6118 117.26 95.7918 114.8 95.7918 111.4V100.6C95.7918 97.24 96.6118 94.8 98.2518 93.28C99.9318 91.76 102.512 91 105.992 91H111.752V79H116.852V121H112.052V119.62ZM107.852 116.5C109.172 116.5 110.152 116.16 110.792 115.48C111.432 114.76 111.752 114 111.752 113.2V95.5H105.392C103.912 95.5 102.792 95.84 102.032 96.52C101.272 97.2 100.892 98.16 100.892 99.4V112.6C100.892 113.84 101.272 114.8 102.032 115.48C102.792 116.16 103.912 116.5 105.392 116.5H107.852ZM124.35 84.4V79H130.05V84.4H124.35ZM124.65 121V91H129.75V121H124.65ZM158.137 111.4C158.137 114.76 157.297 117.2 155.617 118.72C153.977 120.24 151.417 121 147.937 121H147.157C143.677 121 141.097 120.24 139.417 118.72C137.777 117.2 136.957 114.76 136.957 111.4V100.6C136.957 97.24 137.777 94.8 139.417 93.28C141.097 91.76 143.677 91 147.157 91H147.937C151.417 91 153.977 91.76 155.617 93.28C157.297 94.8 158.137 97.24 158.137 100.6V111.4ZM153.037 99.4C153.037 98.16 152.657 97.2 151.897 96.52C151.137 95.84 150.017 95.5 148.537 95.5H146.557C145.077 95.5 143.957 95.84 143.197 96.52C142.437 97.2 142.057 98.16 142.057 99.4V112.6C142.057 113.84 142.437 114.8 143.197 115.48C143.957 116.16 145.077 116.5 146.557 116.5H148.537C150.017 116.5 151.137 116.16 151.897 115.48C152.657 114.8 153.037 113.84 153.037 112.6V99.4Z" fill="black"/>
<path d="M62.9509 159.5C62.9509 162.02 62.1709 163.9 60.6109 165.14C59.0909 166.38 56.8709 167 53.9509 167H46.2109V162.5H54.5509C55.6309 162.5 56.4509 162.28 57.0109 161.84C57.5709 161.36 57.8509 160.68 57.8509 159.8V156.62C57.8509 154.82 56.9909 153.92 55.2709 153.92H54.2509C51.4509 153.92 49.3509 153.32 47.9509 152.12C46.5909 150.88 45.9109 148.94 45.9109 146.3V144.56C45.9109 141.88 46.6709 139.96 48.1909 138.8C49.7109 137.6 51.9509 137 54.9109 137H61.7509V141.5H54.3109C53.3109 141.5 52.5109 141.74 51.9109 142.22C51.3109 142.66 51.0109 143.32 51.0109 144.2V146.36C51.0109 147.28 51.2709 147.96 51.7909 148.4C52.3509 148.84 53.0509 149.06 53.8909 149.06H54.7309C57.4109 149.06 59.4509 149.72 60.8509 151.04C62.2509 152.32 62.9509 154.24 62.9509 156.8V159.5ZM75.8758 167C73.8358 167 72.2758 166.34 71.1958 165.02C70.1158 163.7 69.5758 161.96 69.5758 159.8V141.5H65.6758V137H69.5758V129.8H74.6758V137H81.6358V141.5H74.6758V160.1C74.6758 160.98 74.8958 161.6 75.3358 161.96C75.7758 162.32 76.4558 162.5 77.3758 162.5H81.6358V167H75.8758ZM103.809 167C103.289 167 102.709 166.84 102.069 166.52C101.469 166.2 100.949 165.76 100.509 165.2C99.5886 166.4 98.3686 167 96.8486 167H92.7086C89.6686 167 87.4486 166.4 86.0486 165.2C84.6886 163.96 84.0086 161.86 84.0086 158.9V157.7C84.0086 151.5 86.9286 148.4 92.7686 148.4H99.0086V145.4C99.0086 144.16 98.6286 143.2 97.8686 142.52C97.1086 141.84 95.9886 141.5 94.5086 141.5H86.4086V137H93.9086C97.3886 137 99.9486 137.76 101.589 139.28C103.269 140.8 104.109 143.24 104.109 146.6V161C104.109 161.6 104.329 162.06 104.769 162.38C105.249 162.66 106.029 162.8 107.109 162.8V167H103.809ZM96.2486 162.5C97.4486 162.5 98.2086 162.22 98.5286 161.66C98.8486 161.1 99.0086 160.38 99.0086 159.5V152.9H92.7086C91.6686 152.9 90.8086 153.24 90.1286 153.92C89.4486 154.6 89.1086 155.46 89.1086 156.5V159.5C89.1086 160.54 89.3486 161.3 89.8286 161.78C90.3086 162.26 91.0686 162.5 92.1086 162.5H96.2486ZM122.092 167C118.572 167 115.992 166.26 114.352 164.78C112.712 163.26 111.892 160.8 111.892 157.4V146.6C111.892 143.24 112.712 140.8 114.352 139.28C116.032 137.76 118.612 137 122.092 137H128.632V141.5H121.492C120.012 141.5 118.892 141.84 118.132 142.52C117.372 143.2 116.992 144.16 116.992 145.4V158.6C116.992 159.84 117.372 160.8 118.132 161.48C118.892 162.16 120.012 162.5 121.492 162.5H128.632V167H122.092ZM149.657 167L141.437 152.18L139.757 154.16V167H134.657V125H139.757V147.44L148.757 137H155.177L145.037 148.58L155.597 167H149.657Z" fill="black"/>
</svg>
